<svg width="183" height="85" viewBox="0 0 183 85" fill="none" xmlns="http://www.w3.org/2000/svg">
<path d="M160.5 85L3.50002 85L3.50005 3.89883e-07L182.5 -1.52588e-05L182.5 56L160.5 85Z" fill="url(#paint0_linear_2251_389)" fill-opacity="0.7"/>
<path d="M0.150391 78.8506L0.150384 3.15138L177.35 3.15137L177.35 52.4512L157.425 78.8506L0.150391 78.8506Z" stroke="white" stroke-width="0.3"/>
<path d="M42.3238 21.2C44.7718 21.2 46.7078 21.816 48.1318 23.048C49.5558 24.264 50.2678 26.008 50.2678 28.28H45.2038C45.2038 27.32 44.9478 26.56 44.4358 26C43.9398 25.44 43.2278 25.16 42.2998 25.16C41.2278 25.16 40.4358 25.496 39.9238 26.168C39.4278 26.84 39.1798 27.776 39.1798 28.976V30.512C39.1798 31.696 39.4278 32.632 39.9238 33.32C40.4358 33.992 41.2118 34.328 42.2518 34.328C43.2758 34.328 44.0518 34.064 44.5798 33.536C45.1078 33.008 45.3718 32.264 45.3718 31.304H50.2678C50.2678 33.56 49.5718 35.288 48.1798 36.488C46.8038 37.688 44.8518 38.288 42.3238 38.288C39.5078 38.288 37.3718 37.568 35.9158 36.128C34.4758 34.688 33.7558 32.56 33.7558 29.744C33.7558 26.928 34.4758 24.8 35.9158 23.36C37.3718 21.92 39.5078 21.2 42.3238 21.2ZM61.3395 21.2C64.1875 21.2 66.3875 21.928 67.9395 23.384C69.4915 24.84 70.2675 26.96 70.2675 29.744C70.2675 32.528 69.4915 34.648 67.9395 36.104C66.3875 37.56 64.1875 38.288 61.3395 38.288C58.4915 38.288 56.2915 37.568 54.7395 36.128C53.2035 34.672 52.4355 32.544 52.4355 29.744C52.4355 26.944 53.2035 24.824 54.7395 23.384C56.2915 21.928 58.4915 21.2 61.3395 21.2ZM61.3395 25.16C60.2035 25.16 59.3395 25.504 58.7475 26.192C58.1555 26.88 57.8595 27.808 57.8595 28.976V30.512C57.8595 31.68 58.1555 32.608 58.7475 33.296C59.3395 33.984 60.2035 34.328 61.3395 34.328C62.4755 34.328 63.3395 33.984 63.9315 33.296C64.5395 32.608 64.8435 31.68 64.8435 30.512V28.976C64.8435 27.808 64.5395 26.88 63.9315 26.192C63.3395 25.504 62.4755 25.16 61.3395 25.16ZM87.3077 38V32.048C87.3077 31.312 87.3317 30.56 87.3797 29.792C87.4437 29.008 87.5077 28.352 87.5717 27.824C87.6357 27.296 87.6757 26.96 87.6917 26.816H87.5957L84.5477 38H80.3957L77.3237 26.84H77.2277C77.2437 26.984 77.2837 27.32 77.3477 27.848C77.4277 28.36 77.4997 29.008 77.5637 29.792C77.6277 30.56 77.6597 31.312 77.6597 32.048V38H72.7877V21.488H80.2757L82.7717 31.016H82.8677L85.3397 21.488H92.5637V38H87.3077ZM96.0277 38V21.488H101.332V38H96.0277ZM116.924 38L109.988 29.984V38H105.116V21.488H109.748L116.684 29.624V21.488H121.556V38H116.924ZM133.412 21.2C134.996 21.2 136.42 21.44 137.684 21.92C138.948 22.4 139.948 23.112 140.684 24.056C141.436 24.984 141.812 26.12 141.812 27.464H136.748C136.748 26.776 136.444 26.224 135.836 25.808C135.228 25.376 134.492 25.16 133.628 25.16C132.38 25.16 131.436 25.496 130.796 26.168C130.156 26.824 129.836 27.76 129.836 28.976V30.512C129.836 31.728 130.156 32.672 130.796 33.344C131.436 34 132.38 34.328 133.628 34.328C134.492 34.328 135.228 34.128 135.836 33.728C136.444 33.312 136.748 32.784 136.748 32.144H133.004V28.784H141.812V38H139.076L138.548 36.368C137.044 37.648 135.076 38.288 132.644 38.288C129.908 38.288 127.852 37.576 126.476 36.152C125.1 34.712 124.412 32.576 124.412 29.744C124.412 26.944 125.188 24.824 126.74 23.384C128.308 21.928 130.532 21.2 133.412 21.2ZM58.0636 47.2C60.1756 47.2 61.9116 47.632 63.2716 48.496C64.6316 49.344 65.3276 50.608 65.3596 52.288V52.576H60.3916V52.48C60.3916 52 60.2156 51.6 59.8636 51.28C59.5116 50.96 58.9756 50.8 58.2556 50.8C57.5516 50.8 57.0076 50.904 56.6236 51.112C56.2556 51.32 56.0716 51.576 56.0716 51.88C56.0716 52.312 56.3276 52.632 56.8396 52.84C57.3516 53.048 58.1756 53.264 59.3116 53.488C60.6396 53.76 61.7276 54.048 62.5756 54.352C63.4396 54.64 64.1916 55.12 64.8316 55.792C65.4716 56.464 65.7996 57.376 65.8156 58.528C65.8156 60.48 65.1516 61.928 63.8236 62.872C62.5116 63.816 60.7516 64.288 58.5436 64.288C55.9676 64.288 53.9596 63.856 52.5196 62.992C51.0956 62.128 50.3836 60.6 50.3836 58.408H55.3996C55.3996 59.24 55.6156 59.8 56.0476 60.088C56.4796 60.36 57.1516 60.496 58.0636 60.496C58.7356 60.496 59.2876 60.424 59.7196 60.28C60.1676 60.136 60.3916 59.84 60.3916 59.392C60.3916 58.992 60.1436 58.696 59.6476 58.504C59.1676 58.296 58.3756 58.08 57.2716 57.856C55.9276 57.568 54.8156 57.272 53.9356 56.968C53.0556 56.648 52.2876 56.128 51.6316 55.408C50.9756 54.688 50.6476 53.712 50.6476 52.48C50.6476 50.672 51.3436 49.344 52.7356 48.496C54.1436 47.632 55.9196 47.2 58.0636 47.2ZM76.6559 47.2C79.5039 47.2 81.7039 47.928 83.2559 49.384C84.8079 50.84 85.5839 52.96 85.5839 55.744C85.5839 58.528 84.8079 60.648 83.2559 62.104C81.7039 63.56 79.5039 64.288 76.6559 64.288C73.8079 64.288 71.6079 63.568 70.0559 62.128C68.5199 60.672 67.7519 58.544 67.7519 55.744C67.7519 52.944 68.5199 50.824 70.0559 49.384C71.6079 47.928 73.8079 47.2 76.6559 47.2ZM76.6559 51.16C75.5199 51.16 74.6559 51.504 74.0639 52.192C73.4719 52.88 73.1759 53.808 73.1759 54.976V56.512C73.1759 57.68 73.4719 58.608 74.0639 59.296C74.6559 59.984 75.5199 60.328 76.6559 60.328C77.7919 60.328 78.6559 59.984 79.2479 59.296C79.8559 58.608 80.1599 57.68 80.1599 56.512V54.976C80.1599 53.808 79.8559 52.88 79.2479 52.192C78.6559 51.504 77.7919 51.16 76.6559 51.16ZM96.6481 47.2C99.4961 47.2 101.696 47.928 103.248 49.384C104.8 50.84 105.576 52.96 105.576 55.744C105.576 58.528 104.8 60.648 103.248 62.104C101.696 63.56 99.4961 64.288 96.6481 64.288C93.8001 64.288 91.6001 63.568 90.0481 62.128C88.5121 60.672 87.7441 58.544 87.7441 55.744C87.7441 52.944 88.5121 50.824 90.0481 49.384C91.6001 47.928 93.8001 47.2 96.6481 47.2ZM96.6481 51.16C95.5121 51.16 94.6481 51.504 94.0561 52.192C93.4641 52.88 93.1681 53.808 93.1681 54.976V56.512C93.1681 57.68 93.4641 58.608 94.0561 59.296C94.6481 59.984 95.5121 60.328 96.6481 60.328C97.7841 60.328 98.6481 59.984 99.2401 59.296C99.8481 58.608 100.152 57.68 100.152 56.512V54.976C100.152 53.808 99.8481 52.88 99.2401 52.192C98.6481 51.504 97.7841 51.16 96.6481 51.16ZM120.24 64L113.304 55.984V64H108.432V47.488H113.064L120 55.624V47.488H124.872V64H120.24Z" fill="white"/>
<defs>
<linearGradient id="paint0_linear_2251_389" x1="93" y1="93" x2="93" y2="-6.74155e-06" gradientUnits="userSpaceOnUse">
<stop/>
<stop offset="1" stop-color="#16325F"/>
</linearGradient>
</defs>
</svg>
